<svg width="340" height="21" viewBox="0 0 340 21" fill="none" xmlns="http://www.w3.org/2000/svg">
<g clip-path="url(#clip0_5_464)">
<path d="M10.0709 1.64457C10.4146 0.785142 11.5854 0.785143 11.9291 1.64457L13.9579 6.71708C14.1029 7.0794 14.4306 7.32696 14.8067 7.35831L20.0727 7.79735C20.9649 7.87173 21.3267 9.02961 20.6469 9.63516L16.6348 13.2092C16.3482 13.4644 16.223 13.8651 16.3106 14.2466L17.5363 19.5905C17.744 20.4959 16.7969 21.2116 16.033 20.7264L11.5245 17.8627C11.2025 17.6581 10.7975 17.6581 10.4755 17.8627L5.96699 20.7264C5.20311 21.2116 4.25596 20.4959 4.46363 19.5905L5.68942 14.2466C5.77698 13.8651 5.65182 13.4644 5.36526 13.2092L1.35306 9.63516C0.673282 9.02961 1.03507 7.87173 1.92729 7.79735L7.19336 7.35831C7.5695 7.32696 7.89716 7.0794 8.04207 6.71708L10.0709 1.64457Z" fill="#CF6F49"/>
</g>
<g clip-path="url(#clip1_5_464)">
<path d="M58.0709 1.64457C58.4146 0.785142 59.5854 0.785143 59.9291 1.64457L61.9579 6.71708C62.1029 7.0794 62.4306 7.32696 62.8067 7.35831L68.0727 7.79735C68.9649 7.87173 69.3267 9.02961 68.6469 9.63516L64.6348 13.2092C64.3482 13.4644 64.223 13.8651 64.3106 14.2466L65.5363 19.5905C65.744 20.4959 64.7969 21.2116 64.033 20.7264L59.5245 17.8627C59.2025 17.6581 58.7975 17.6581 58.4755 17.8627L53.967 20.7264C53.2031 21.2116 52.256 20.4959 52.4636 19.5905L53.6894 14.2466C53.777 13.8651 53.6518 13.4644 53.3653 13.2092L49.3531 9.63516C48.6733 9.02961 49.0351 7.87173 49.9273 7.79735L55.1934 7.35831C55.5695 7.32696 55.8972 7.0794 56.0421 6.71708L58.0709 1.64457Z" fill="#CF6F49"/>
</g>
<g clip-path="url(#clip2_5_464)">
<path d="M106.071 1.64457C106.415 0.785142 107.585 0.785143 107.929 1.64457L109.958 6.71708C110.103 7.0794 110.431 7.32696 110.807 7.35831L116.073 7.79735C116.965 7.87173 117.327 9.02961 116.647 9.63516L112.635 13.2092C112.348 13.4644 112.223 13.8651 112.311 14.2466L113.536 19.5905C113.744 20.4959 112.797 21.2116 112.033 20.7264L107.524 17.8627C107.203 17.6581 106.797 17.6581 106.475 17.8627L101.967 20.7264C101.203 21.2116 100.256 20.4959 100.464 19.5905L101.689 14.2466C101.777 13.8651 101.652 13.4644 101.365 13.2092L97.3531 9.63516C96.6733 9.02961 97.0351 7.87173 97.9273 7.79735L103.193 7.35831C103.569 7.32696 103.897 7.0794 104.042 6.71708L106.071 1.64457Z" fill="#CF6F49"/>
</g>
<g clip-path="url(#clip3_5_464)">
<path d="M34.0709 1.64457C34.4146 0.785142 35.5854 0.785143 35.9291 1.64457L37.9579 6.71708C38.1029 7.0794 38.4306 7.32696 38.8067 7.35831L44.0727 7.79735C44.9649 7.87173 45.3267 9.02961 44.6469 9.63516L40.6348 13.2092C40.3482 13.4644 40.223 13.8651 40.3106 14.2466L41.5363 19.5905C41.744 20.4959 40.7969 21.2116 40.033 20.7264L35.5245 17.8627C35.2025 17.6581 34.7975 17.6581 34.4755 17.8627L29.967 20.7264C29.2031 21.2116 28.256 20.4959 28.4636 19.5905L29.6894 14.2466C29.777 13.8651 29.6518 13.4644 29.3653 13.2092L25.3531 9.63516C24.6733 9.02961 25.0351 7.87173 25.9273 7.79735L31.1934 7.35831C31.5695 7.32696 31.8972 7.0794 32.0421 6.71708L34.0709 1.64457Z" fill="#CF6F49"/>
</g>
<g clip-path="url(#clip4_5_464)">
<path d="M82.0709 1.64457C82.4146 0.785142 83.5854 0.785143 83.9291 1.64457L85.9579 6.71708C86.1029 7.0794 86.4306 7.32696 86.8067 7.35831L92.0727 7.79735C92.9649 7.87173 93.3267 9.02961 92.6469 9.63516L88.6348 13.2092C88.3482 13.4644 88.223 13.8651 88.3106 14.2466L89.5363 19.5905C89.744 20.4959 88.7969 21.2116 88.033 20.7264L83.5245 17.8627C83.2025 17.6581 82.7975 17.6581 82.4755 17.8627L77.967 20.7264C77.2031 21.2116 76.256 20.4959 76.4636 19.5905L77.6894 14.2466C77.777 13.8651 77.6518 13.4644 77.3653 13.2092L73.3531 9.63516C72.6733 9.02961 73.0351 7.87173 73.9273 7.79735L79.1934 7.35831C79.5695 7.32696 79.8972 7.0794 80.0421 6.71708L82.0709 1.64457Z" fill="#CF6F49"/>
</g>
<defs>
<clipPath id="clip0_5_464">
<rect width="20" height="20" fill="white" transform="translate(1 1)"/>
</clipPath>
<clipPath id="clip1_5_464">
<rect width="20" height="20" fill="white" transform="translate(49 1)"/>
</clipPath>
<clipPath id="clip2_5_464">
<rect width="20" height="20" fill="white" transform="translate(97 1)"/>
</clipPath>
<clipPath id="clip3_5_464">
<rect width="20" height="20" fill="white" transform="translate(25 1)"/>
</clipPath>
<clipPath id="clip4_5_464">
<rect width="20" height="20" fill="white" transform="translate(73 1)"/>
</clipPath>
</defs>
</svg>
