<svg width="20" height="20" viewBox="0 0 20 20" fill="none" xmlns="http://www.w3.org/2000/svg">
<g clip-path="url(#clip0_5_451)">
<path d="M9.07088 0.644571C9.41462 -0.214858 10.5854 -0.214857 10.9291 0.644574L12.9579 5.71708C13.1029 6.0794 13.4306 6.32696 13.8067 6.35831L19.0727 6.79735C19.9649 6.87173 20.3267 8.02961 19.6469 8.63516L15.6348 12.2092C15.3482 12.4644 15.223 12.8651 15.3106 13.2466L16.5363 18.5905C16.744 19.4959 15.7969 20.2116 15.033 19.7264L10.5245 16.8627C10.2025 16.6581 9.7975 16.6581 9.47548 16.8627L4.96699 19.7264C4.20311 20.2116 3.25596 19.4959 3.46363 18.5905L4.68942 13.2466C4.77698 12.8651 4.65182 12.4644 4.36526 12.2092L0.353062 8.63516C-0.326718 8.02961 0.035068 6.87173 0.927291 6.79735L6.19336 6.35831C6.5695 6.32696 6.89716 6.0794 7.04207 5.71708L9.07088 0.644571Z" fill="#CF6F49"/>
</g>
<defs>
<clipPath id="clip0_5_451">
<rect width="20" height="20" fill="white"/>
</clipPath>
</defs>
</svg>
