<svg width="14" height="18" viewBox="0 0 14 18" fill="none" xmlns="http://www.w3.org/2000/svg">
<path d="M12 4H10.3203C10.3203 3.375 10.1641 2.8151 9.85156 2.32031C9.5651 1.82552 9.17448 1.4349 8.67969 1.14844C8.1849 0.835938 7.625 0.679688 7 0.679688C6.375 0.679688 5.8151 0.835938 5.32031 1.14844C4.82552 1.4349 4.42188 1.82552 4.10938 2.32031C3.82292 2.8151 3.67969 3.375 3.67969 4H2C1.53125 4 1.1276 4.16927 0.789062 4.50781C0.476562 4.82031 0.320312 5.21094 0.320312 5.67969V15.6797C0.320312 16.1224 0.476562 16.513 0.789062 16.8516C1.1276 17.1641 1.53125 17.3203 2 17.3203H12C12.4688 17.3203 12.8594 17.1641 13.1719 16.8516C13.5104 16.513 13.6797 16.1224 13.6797 15.6797V5.67969C13.6797 5.21094 13.5104 4.82031 13.1719 4.50781C12.8594 4.16927 12.4688 4 12 4ZM5.32031 7.32031C5.32031 7.55469 5.24219 7.76302 5.08594 7.94531C4.92969 8.10156 4.73438 8.17969 4.5 8.17969C4.26562 8.17969 4.07031 8.10156 3.91406 7.94531C3.75781 7.76302 3.67969 7.55469 3.67969 7.32031V5.67969H5.32031V7.32031ZM7 2.32031C7.46875 2.32031 7.85938 2.48958 8.17188 2.82812C8.51042 3.14062 8.67969 3.53125 8.67969 4H5.32031C5.32031 3.53125 5.47656 3.14062 5.78906 2.82812C6.1276 2.48958 6.53125 2.32031 7 2.32031ZM10.3203 7.32031C10.3203 7.55469 10.2422 7.76302 10.0859 7.94531C9.92969 8.10156 9.73438 8.17969 9.5 8.17969C9.26562 8.17969 9.07031 8.10156 8.91406 7.94531C8.75781 7.76302 8.67969 7.55469 8.67969 7.32031V5.67969H10.3203V7.32031Z" fill="#2A2C1F"/>
</svg>
