<svg width="63" height="16" viewBox="0 0 63 16" fill="none" xmlns="http://www.w3.org/2000/svg">
<path d="M0.360001 15V0.999998H5.5C6.62 0.999998 7.54 1.19333 8.26 1.58C8.9933 1.95333 9.54 2.4667 9.9 3.12C10.26 3.76 10.44 4.4733 10.44 5.26C10.44 6.1133 10.2133 6.8933 9.76 7.6C9.32 8.3067 8.6267 8.82 7.68 9.14L10.58 15H7.64L5.04 9.48H2.92V15H0.360001ZM2.92 7.6H5.34C6.1933 7.6 6.82 7.3933 7.22 6.98C7.62 6.5667 7.82 6.02 7.82 5.34C7.82 4.6733 7.62 4.14 7.22 3.74C6.8333 3.34 6.2 3.14 5.32 3.14H2.92V7.6ZM16.9755 15.24C15.9755 15.24 15.0888 15.0267 14.3155 14.6C13.5421 14.1733 12.9355 13.5733 12.4955 12.8C12.0555 12.0267 11.8355 11.1333 11.8355 10.12C11.8355 9.0933 12.0488 8.18 12.4755 7.38C12.9155 6.58 13.5155 5.96 14.2755 5.52C15.0488 5.0667 15.9555 4.84 16.9955 4.84C17.9688 4.84 18.8288 5.0533 19.5755 5.48C20.3221 5.9067 20.9021 6.4933 21.3155 7.24C21.7421 7.9733 21.9555 8.7933 21.9555 9.7C21.9555 9.8467 21.9488 10 21.9355 10.16C21.9355 10.32 21.9288 10.4867 21.9155 10.66H14.3755C14.4288 11.4333 14.6955 12.04 15.1755 12.48C15.6688 12.92 16.2621 13.14 16.9555 13.14C17.4755 13.14 17.9088 13.0267 18.2555 12.8C18.6155 12.56 18.8821 12.2533 19.0555 11.88H21.6555C21.4688 12.5067 21.1555 13.08 20.7155 13.6C20.2888 14.1067 19.7555 14.5067 19.1155 14.8C18.4888 15.0933 17.7755 15.24 16.9755 15.24ZM16.9955 6.92C16.3688 6.92 15.8155 7.1 15.3355 7.46C14.8555 7.8067 14.5488 8.34 14.4155 9.06H19.3555C19.3155 8.4067 19.0755 7.8867 18.6355 7.5C18.1955 7.1133 17.6488 6.92 16.9955 6.92ZM27.5286 15.24C26.6753 15.24 25.9753 15.1067 25.4286 14.84C24.8819 14.56 24.4753 14.1933 24.2086 13.74C23.9419 13.2867 23.8086 12.7867 23.8086 12.24C23.8086 11.32 24.1686 10.5733 24.8886 10C25.6086 9.4267 26.6886 9.14 28.1286 9.14H30.6486V8.9C30.6486 8.22 30.4553 7.72 30.0686 7.4C29.6819 7.08 29.2019 6.92 28.6286 6.92C28.1086 6.92 27.6553 7.0467 27.2686 7.3C26.8819 7.54 26.6419 7.9 26.5486 8.38H24.0486C24.1153 7.66 24.3553 7.0333 24.7686 6.5C25.1953 5.9667 25.7419 5.56 26.4086 5.28C27.0753 4.9867 27.8219 4.84 28.6486 4.84C30.0619 4.84 31.1753 5.1933 31.9886 5.9C32.8019 6.6067 33.2086 7.6067 33.2086 8.9V15H31.0286L30.7886 13.4C30.4953 13.9333 30.0819 14.3733 29.5486 14.72C29.0286 15.0667 28.3553 15.24 27.5286 15.24ZM28.1086 13.24C28.8419 13.24 29.4086 13 29.8086 12.52C30.2219 12.04 30.4819 11.4467 30.5886 10.74H28.4086C27.7286 10.74 27.2419 10.8667 26.9486 11.12C26.6553 11.36 26.5086 11.66 26.5086 12.02C26.5086 12.4067 26.6553 12.7067 26.9486 12.92C27.2419 13.1333 27.6286 13.24 28.1086 13.24ZM35.6516 15V0.599998H38.2116V15H35.6516ZM45.6873 15.24C44.674 15.24 43.7807 15.02 43.0073 14.58C42.234 14.14 41.6207 13.5267 41.1673 12.74C40.7273 11.9533 40.5073 11.0533 40.5073 10.04C40.5073 9.0267 40.7273 8.1267 41.1673 7.34C41.6207 6.5533 42.234 5.94 43.0073 5.5C43.7807 5.06 44.674 4.84 45.6873 4.84C46.954 4.84 48.0207 5.1733 48.8873 5.84C49.754 6.4933 50.3073 7.4 50.5473 8.56H47.8473C47.714 8.08 47.4473 7.7067 47.0473 7.44C46.6607 7.16 46.2007 7.02 45.6673 7.02C44.9607 7.02 44.3607 7.2867 43.8673 7.82C43.374 8.3533 43.1273 9.0933 43.1273 10.04C43.1273 10.9867 43.374 11.7267 43.8673 12.26C44.3607 12.7933 44.9607 13.06 45.6673 13.06C46.2007 13.06 46.6607 12.9267 47.0473 12.66C47.4473 12.3933 47.714 12.0133 47.8473 11.52H50.5473C50.3073 12.64 49.754 13.54 48.8873 14.22C48.0207 14.9 46.954 15.24 45.6873 15.24ZM57.5795 15.24C56.6195 15.24 55.7529 15.02 54.9795 14.58C54.2195 14.14 53.6129 13.5333 53.1595 12.76C52.7195 11.9733 52.4995 11.0667 52.4995 10.04C52.4995 9.0133 52.7262 8.1133 53.1795 7.34C53.6329 6.5533 54.2395 5.94 54.9995 5.5C55.7729 5.06 56.6395 4.84 57.5995 4.84C58.5462 4.84 59.4 5.06 60.16 5.5C60.933 5.94 61.54 6.5533 61.98 7.34C62.433 8.1133 62.66 9.0133 62.66 10.04C62.66 11.0667 62.433 11.9733 61.98 12.76C61.54 13.5333 60.933 14.14 60.16 14.58C59.386 15.02 58.5262 15.24 57.5795 15.24ZM57.5795 13.02C58.2462 13.02 58.8262 12.7733 59.32 12.28C59.813 11.7733 60.06 11.0267 60.06 10.04C60.06 9.0533 59.813 8.3133 59.32 7.82C58.8262 7.3133 58.2529 7.06 57.5995 7.06C56.9195 7.06 56.3329 7.3133 55.8395 7.82C55.3595 8.3133 55.1195 9.0533 55.1195 10.04C55.1195 11.0267 55.3595 11.7733 55.8395 12.28C56.3329 12.7733 56.9129 13.02 57.5795 13.02Z" fill="#2A2C1F"/>
</svg>
